<svg width="370" height="375" viewBox="0 0 370 375" fill="none" xmlns="http://www.w3.org/2000/svg">
<path d="M185 182L337.5 104V276.5L185 364V182Z" fill="#513838"/>
<path d="M185 9.99993L336 100.5L185 179L32 100.5L185 9.99993Z" fill="#161111"/>
<path d="M182.5 185L30 107V274L182.5 367V185Z" fill="#332828"/>
<path d="M168.839 15.25C178.821 9.40868 191.179 9.40867 201.161 15.25L324.376 87.3493C334.186 93.0896 340.215 103.602 340.215 114.968V260.032C340.215 271.397 334.186 281.91 324.376 287.651L201.161 359.75C191.179 365.591 178.821 365.591 168.839 359.75L45.624 287.651C35.8142 281.91 29.7853 271.397 29.7853 260.032V114.968C29.7853 103.603 35.8141 93.0895 45.624 87.3493L168.839 15.25Z" stroke="black" stroke-width="10"/>
<line x1="32.2932" y1="102.557" x2="187.293" y2="182.557" stroke="black" stroke-width="10"/>
<path d="M338.5 100.5L187.408 181.382" stroke="black" stroke-width="10"/>
<line x1="186.027" y1="361.001" x2="186" y2="177.001" stroke="black" stroke-width="10"/>
</svg>
